<?xml version="1.0" standalone="no"?>
<!DOCTYPE svg PUBLIC "-//W3C//DTD SVG 20010904//EN"
 "http://www.w3.org/TR/2001/REC-SVG-20010904/DTD/svg10.dtd">
<svg version="1.0" xmlns="http://www.w3.org/2000/svg"
 width="32.000000pt" height="32.000000pt" viewBox="0 0 32.000000 32.000000"
 preserveAspectRatio="xMidYMid meet">

<g transform="translate(0.000000,32.000000) scale(0.100000,-0.100000)"
fill="#fff" d="..." stroke="none">
<path d="M150 225 c0 -36 -3 -65 -7 -65 -4 0 -17 10 -30 22 -42 39 -38 8 5
-35 l42 -42 42 42 c43 43 47 74 5 35 -13 -12 -26 -22 -30 -22 -4 0 -7 29 -7
65 0 37 -4 65 -10 65 -6 0 -10 -28 -10 -65z"/>
<path d="M32 83 l3 -48 125 0 125 0 3 48 c4 55 -15 65 -20 10 l-3 -38 -105 0
-105 0 -3 38 c-5 55 -24 45 -20 -10z"/>
</g>
</svg>
