<?xml version="1.0" standalone="no"?>
<!DOCTYPE svg PUBLIC "-//W3C//DTD SVG 20010904//EN"
 "http://www.w3.org/TR/2001/REC-SVG-20010904/DTD/svg10.dtd">
<svg version="1.0" xmlns="http://www.w3.org/2000/svg"
 width="32.000000pt" height="32.000000pt" viewBox="0 0 32.000000 32.000000"
 preserveAspectRatio="xMidYMid meet">

<g transform="translate(0.000000,32.000000) scale(0.100000,-0.100000)"
fill="#fff" stroke="none">
<path d="M122 298 c-7 -7 -12 -43 -12 -89 0 -82 12 -109 50 -109 38 0 50 27
50 109 0 84 -8 101 -50 101 -14 0 -31 -5 -38 -12z m56 -20 c14 -14 16 -116 3
-136 -5 -8 -17 -12 -27 -10 -16 3 -20 14 -22 66 -4 78 15 111 46 80z"/>
<path d="M70 136 c0 -23 41 -67 72 -79 10 -4 11 -7 1 -18 -20 -21 -15 -29 17
-29 32 0 37 8 18 29 -11 11 -10 15 2 19 27 10 70 60 70 81 0 31 -16 26 -30 -9
-22 -53 -98 -53 -120 0 -15 36 -30 39 -30 6z"/>
</g>
</svg>
